# xmcd
#
# Track frame offsets:
# 150
# 17343
# 30393
# 44199
# 58121
# 70544
# 81978
# 95860
# 111205
# 125615
# 139506
# 152885
# 171060
# 187229
# 202854
# 217107
# 229291
# 247306
# 268727
# 286337
#
# Disc length: 4039 seconds
#
#
# Revision: 0
# Processed by: cddbd v1.5.1PL0 Copyright (c) Steve Scherf et al.
# Submitted via: FreeRIP 2.92 
#
DISCID=320fc514
DTITLE=Chrystian and Ralf - As 20 Mais
DYEAR=1900
DGENRE=
TTITLE0=De cara cheia
TTITLE1=Quebradas da noite
TTITLE2=Camisa manchada
TTITLE3=Noite de tortura
TTITLE4=Casa da esquina
TTITLE5=Cama fria
TTITLE6=Machucando o coração
TTITLE7=Endoidei de vez
TTITLE8=Vazio da solidão
TTITLE9=Apaixonei de novo
TTITLE10=Paixão preferida
TTITLE11=O mais fraco coração
TTITLE12=Tempo ao tempo
TTITLE13=Esta noite eu queria que o mundo acabasse
TTITLE14=Chora peito
TTITLE15=Que queres tu de mim
TTITLE16=A melhor mentira
TTITLE17=Olhos de luar
TTITLE18=Caminheiro
TTITLE19=Poeira
EXTD=
EXTT0=
EXTT1=
EXTT2=
EXTT3=
EXTT4=
EXTT5=
EXTT6=
EXTT7=
EXTT8=
EXTT9=
EXTT10=
EXTT11=
EXTT12=
EXTT13=
EXTT14=
EXTT15=
EXTT16=
EXTT17=
EXTT18=
EXTT19=
PLAYORDER=
